<svg xmlns="http://www.w3.org/2000/svg" viewBox="0 0 64 64" role="img" aria-label="Sideemd">
  <rect width="64" height="64" rx="14" fill="#f4f0e8"/>
  <rect x="8" y="10" width="36" height="44" rx="6" fill="#faf6ee"/>
  <g fill="#1e1f24">
    <rect x="14" y="15" width="3" height="12" rx="0.8"/>
    <rect x="21" y="15" width="3" height="12" rx="0.8"/>
    <rect x="14" y="20" width="10" height="3" rx="0.8"/>
    <rect x="14" y="27" width="10" height="3" rx="0.8"/>
    <rect x="14" y="36" width="22" height="3" rx="1.5"/>
    <rect x="14" y="43" width="16" height="3" rx="1.5"/>
    <rect x="14" y="50" width="19" height="3" rx="1.5"/>
  </g>
  <rect x="42" y="10" width="14" height="44" rx="6" fill="#1f6feb"/>
  <g stroke="#fff" stroke-width="2" stroke-linecap="round" fill="none">
    <path d="M46 19h6M46 23h6M46 27h6"/>
    <path d="M47 35l4.5 4.5L47 44"/>
    <circle cx="49" cy="50" r="4"/>
    <path d="M52.2 53.2 54.5 55.5"/>
  </g>
</svg>
